<?xml version="1.0" encoding="utf-8"?>
<!-- Generator: Adobe Illustrator 17.1.0, SVG Export Plug-In . SVG Version: 6.00 Build 0)  -->
<!DOCTYPE svg PUBLIC "-//W3C//DTD SVG 1.1//EN" "http://www.w3.org/Graphics/SVG/1.1/DTD/svg11.dtd">
<svg version="1.1" id="Layer_1" xmlns="http://www.w3.org/2000/svg" xmlns:xlink="http://www.w3.org/1999/xlink" x="0px" y="0px"
	 viewBox="0 0 226.516 66.949" enable-background="new 0 0 226.516 66.949" xml:space="preserve">
<g>
	<path fill="#FFFFFF" d="M100.359,52.6h2.054l4.873,13.427h-1.992l-1.402-4.021h-5.268l-1.456,4.021h-1.864L100.359,52.6z
		 M103.376,60.524l-2.067-5.932l-2.148,5.932H103.376z"/>
	<path fill="#FFFFFF" d="M120.998,52.847c0.944,0.311,1.71,0.881,2.296,1.709c0.469,0.671,0.789,1.396,0.96,2.176
		c0.171,0.779,0.256,1.523,0.256,2.229c0,1.792-0.359,3.309-1.079,4.552c-0.976,1.676-2.481,2.514-4.519,2.514h-5.809V52.554h5.809
		C119.748,52.566,120.442,52.664,120.998,52.847z M115.836,54.894v8.793h2.601c1.33,0,2.258-0.655,2.782-1.965
		c0.287-0.719,0.431-1.575,0.431-2.568c0-1.371-0.215-2.424-0.646-3.158c-0.43-0.734-1.286-1.102-2.567-1.102H115.836z"/>
	<path fill="#FFFFFF" d="M128.248,61.959c0,0.53,0.085,0.969,0.255,1.316c0.316,0.64,0.891,0.96,1.724,0.96
		c0.511,0,0.956-0.176,1.336-0.526c0.38-0.35,0.57-0.854,0.57-1.513c0-0.871-0.353-1.453-1.058-1.745
		c-0.4-0.165-1.032-0.247-1.895-0.247V58.34c0.844-0.013,1.433-0.095,1.767-0.247c0.577-0.256,0.865-0.773,0.865-1.554
		c0-0.506-0.147-0.917-0.442-1.233c-0.294-0.317-0.709-0.476-1.244-0.476c-0.613,0-1.064,0.195-1.354,0.585
		s-0.427,0.911-0.415,1.562h-2.431c0.024-0.658,0.137-1.282,0.338-1.873c0.213-0.519,0.548-0.997,1.004-1.436
		c0.341-0.311,0.745-0.548,1.214-0.713c0.469-0.164,1.044-0.246,1.727-0.246c1.266,0,2.287,0.327,3.062,0.982
		c0.776,0.654,1.164,1.534,1.164,2.637c0,0.78-0.231,1.438-0.694,1.974c-0.293,0.336-0.598,0.564-0.914,0.686
		c0.237,0,0.579,0.204,1.023,0.612c0.664,0.616,0.996,1.457,0.996,2.523c0,1.121-0.388,2.106-1.164,2.956
		c-0.776,0.851-1.925,1.275-3.446,1.275c-1.875,0-3.178-0.612-3.908-1.837c-0.384-0.652-0.597-1.505-0.64-2.56H128.248z"/>
	<path fill="#FFFFFF" d="M141.002,52.6h6.008c1.188,0,2.147,0.337,2.877,1.01c0.73,0.674,1.096,1.62,1.096,2.838
		c0,1.049-0.326,1.961-0.978,2.738c-0.651,0.776-1.648,1.165-2.992,1.165h-4.192v5.676h-1.818V52.6z M148.057,54.446
		c-0.399-0.189-0.947-0.283-1.643-0.283h-3.594v4.652h3.594c0.811,0,1.469-0.174,1.974-0.521s0.758-0.96,0.758-1.837
		C149.146,55.47,148.782,54.8,148.057,54.446z"/>
	<path fill="#FFFFFF" d="M153.533,52.6h6.103c1.005,0,1.834,0.149,2.486,0.448c1.238,0.572,1.857,1.63,1.857,3.171
		c0,0.805-0.166,1.463-0.498,1.975s-0.797,0.923-1.394,1.234c0.524,0.213,0.919,0.493,1.184,0.841
		c0.265,0.347,0.413,0.911,0.443,1.69l0.063,1.801c0.019,0.512,0.062,0.893,0.128,1.143c0.11,0.427,0.305,0.7,0.585,0.822v0.302
		h-2.229c-0.062-0.115-0.11-0.265-0.146-0.448c-0.036-0.183-0.067-0.536-0.092-1.06l-0.109-2.239
		c-0.041-0.878-0.358-1.466-0.95-1.765c-0.338-0.164-0.867-0.246-1.59-0.246h-4.022v5.758h-1.818V52.6z M159.44,58.751
		c0.829,0,1.485-0.171,1.969-0.512c0.482-0.341,0.725-0.957,0.725-1.847c0-0.956-0.338-1.608-1.014-1.956
		c-0.361-0.183-0.845-0.273-1.448-0.273h-4.32v4.588H159.44z"/>
	<path fill="#FFFFFF" d="M177.892,54.52c0.89,1.188,1.334,2.708,1.334,4.561c0,2.005-0.509,3.671-1.526,4.999
		c-1.194,1.561-2.897,2.34-5.109,2.34c-2.065,0-3.689-0.682-4.871-2.047c-1.055-1.316-1.581-2.979-1.581-4.99
		c0-1.815,0.45-3.37,1.353-4.661c1.157-1.658,2.87-2.486,5.137-2.486C174.997,52.234,176.752,52.996,177.892,54.52z M176.287,63.077
		c0.716-1.149,1.074-2.471,1.074-3.965c0-1.58-0.413-2.852-1.238-3.814c-0.826-0.964-1.955-1.446-3.387-1.446
		c-1.389,0-2.522,0.478-3.4,1.432c-0.877,0.955-1.315,2.362-1.315,4.222c0,1.488,0.376,2.743,1.129,3.765
		c0.752,1.021,1.973,1.532,3.66,1.532C174.412,64.802,175.571,64.227,176.287,63.077z"/>
	<path fill="#FFFFFF" d="M187.99,62.023c0,1.133-0.167,2.014-0.503,2.641c-0.622,1.146-1.806,1.719-3.551,1.719
		c-1.006,0-1.866-0.272-2.58-0.818c-0.714-0.545-1.07-1.516-1.07-2.911v-0.959h1.709v0.959c0,0.731,0.163,1.281,0.49,1.65
		c0.326,0.368,0.835,0.553,1.524,0.553c0.971,0,1.606-0.332,1.905-0.996c0.184-0.408,0.275-1.179,0.275-2.312V52.6h1.8V62.023z"/>
	<path fill="#FFFFFF" d="M190.925,52.6h9.743v1.646h-7.97v4.076h7.366v1.554h-7.366v4.552h8.106v1.6h-9.88V52.6z"/>
	<path fill="#FFFFFF" d="M212.732,53.578c0.928,0.896,1.442,1.913,1.545,3.053h-1.773c-0.197-0.865-0.591-1.551-1.18-2.057
		c-0.59-0.506-1.417-0.759-2.482-0.759c-1.299,0-2.347,0.465-3.146,1.395c-0.799,0.931-1.198,2.356-1.198,4.277
		c0,1.573,0.36,2.849,1.082,3.828c0.721,0.979,1.797,1.468,3.228,1.468c1.316,0,2.319-0.515,3.008-1.545
		c0.365-0.542,0.637-1.255,0.816-2.139h1.773c-0.156,1.414-0.675,2.6-1.554,3.556c-1.055,1.151-2.476,1.728-4.265,1.728
		c-1.542,0-2.837-0.473-3.885-1.418c-1.379-1.249-2.069-3.18-2.069-5.789c0-1.981,0.519-3.606,1.554-4.875
		c1.12-1.378,2.665-2.066,4.635-2.066C210.501,52.234,211.806,52.682,212.732,53.578z"/>
	<path fill="#FFFFFF" d="M226.516,52.6v1.6h-4.524v11.827h-1.837V54.199h-4.524v-1.6H226.516z"/>
</g>
<g>
	<path fill="#FFFFFF" d="M110.616,0.642c0.983,0.429,1.839,1.007,2.567,1.733c0.728,0.729,1.306,1.584,1.733,2.568
		c0.428,0.985,0.643,2.033,0.643,3.146v2.44c0,0.6-0.279,0.984-0.835,1.155l-5.843,1.541c-0.557,0.172-0.834-0.042-0.834-0.643V8.41
		c0-0.427-0.15-0.791-0.449-1.091c-0.301-0.3-0.664-0.45-1.092-0.45h-0.514c-0.429,0-0.792,0.15-1.092,0.45
		s-0.449,0.664-0.449,1.091v5.843c0.042,0.472,0.129,0.878,0.257,1.22c0.129,0.343,0.363,0.685,0.706,1.027l8.411,6.292
		c0.684,0.6,1.123,1.209,1.315,1.829c0.193,0.621,0.331,1.316,0.418,2.087v11.043c0,1.113-0.215,2.161-0.643,3.146
		c-0.428,0.985-1.006,1.841-1.733,2.568c-0.729,0.728-1.584,1.306-2.567,1.733c-0.985,0.427-2.034,0.642-3.146,0.642h-2.439
		c-1.113,0-2.162-0.215-3.146-0.642c-0.984-0.428-1.84-1.006-2.567-1.733c-0.729-0.728-1.307-1.583-1.733-2.568
		c-0.429-0.984-0.643-2.032-0.643-3.146v-6.164c0-0.599,0.278-0.983,0.835-1.155l5.843-1.541c0.556-0.171,0.834,0.043,0.834,0.643
		v7.896c0,0.429,0.149,0.792,0.449,1.092s0.663,0.449,1.092,0.449h0.514c0.428,0,0.791-0.149,1.092-0.449
		c0.299-0.3,0.449-0.663,0.449-1.092v-8.475c-0.043-0.556-0.129-1.049-0.257-1.477c-0.129-0.428-0.386-0.812-0.771-1.156
		l-8.282-6.355c-0.642-0.599-1.103-1.198-1.38-1.798c-0.279-0.599-0.418-1.391-0.418-2.375V8.089c0-1.112,0.214-2.16,0.643-3.146
		c0.427-0.984,1.005-1.84,1.733-2.568c0.728-0.727,1.583-1.305,2.567-1.733C102.868,0.215,103.917,0,105.03,0h2.439
		C108.582,0,109.631,0.215,110.616,0.642z"/>
	<path fill="#FFFFFF" d="M145.412,1.348v43.145c0,0.6-0.3,0.898-0.898,0.898h-6.164c-0.6,0-0.898-0.299-0.898-0.898V24.204
		l-4.237,16.564c-0.086,0.214-0.192,0.32-0.321,0.32c-0.128,0-0.235-0.106-0.32-0.32l-4.237-16.564v20.288
		c0,0.6-0.301,0.898-0.899,0.898h-6.163c-0.6,0-0.899-0.299-0.899-0.898V1.348c0-0.599,0.3-0.898,0.899-0.898h5.457
		c0.257,0,0.481,0.097,0.674,0.289s0.331,0.396,0.418,0.609l5.071,22.984l5.072-22.984c0.085-0.213,0.225-0.417,0.417-0.609
		c0.193-0.192,0.418-0.289,0.675-0.289h5.457C145.112,0.449,145.412,0.749,145.412,1.348z"/>
	<path fill="#FFFFFF" d="M158.702,44.492c0,0.6-0.3,0.898-0.898,0.898h-5.714c-0.6,0-0.899-0.299-0.899-0.898V1.348
		c0-0.599,0.3-0.898,0.899-0.898h5.714c0.599,0,0.898,0.3,0.898,0.898V44.492z"/>
	<path fill="#FFFFFF" d="M181.172,38.777v5.715c0,0.6-0.301,0.898-0.899,0.898h-8.667h-0.129h-0.063h-5.714
		c-0.601,0-0.899-0.299-0.899-0.898V1.348c0-0.599,0.299-0.898,0.899-0.898h5.714c0.599,0,0.898,0.3,0.898,0.898v36.531h7.961
		C180.871,37.879,181.172,38.179,181.172,38.777z"/>
	<path fill="#FFFFFF" d="M201.073,38.777v5.715c0,0.6-0.3,0.898-0.898,0.898h-13.932c-0.6,0-0.899-0.299-0.899-0.898V1.348
		c0-0.599,0.3-0.898,0.899-0.898h13.932c0.599,0,0.898,0.3,0.898,0.898v5.715c0,0.6-0.3,0.898-0.898,0.898h-7.319v9.245h6.356
		c0.599,0,0.898,0.3,0.898,0.898v5.714c0,0.601-0.3,0.899-0.898,0.899h-6.356v13.161h7.319
		C200.773,37.879,201.073,38.179,201.073,38.777z"/>
	<path fill="#FFFFFF" d="M226.368,44.492c0.128,0.6-0.086,0.898-0.642,0.898h-5.843c-0.257,0-0.504-0.085-0.738-0.257
		c-0.236-0.171-0.396-0.385-0.481-0.642l-4.687-15.729v15.986c-0.129,0.428-0.429,0.642-0.899,0.642h-5.714
		c-0.6,0-0.898-0.299-0.898-0.898V1.348c0-0.599,0.299-0.898,0.898-0.898h9.631c1.112,0,2.16,0.215,3.146,0.642
		c0.984,0.429,1.84,1.007,2.568,1.734c0.727,0.728,1.305,1.584,1.733,2.567c0.427,0.985,0.642,2.033,0.642,3.146v10.465
		c0,1.584-0.407,3.007-1.22,4.27c-0.813,1.263-1.884,2.236-3.21,2.921L226.368,44.492z M213.978,20.224h2.054
		c0.428,0,0.792-0.149,1.092-0.449c0.299-0.299,0.449-0.663,0.449-1.092V8.859c0-0.427-0.15-0.791-0.449-1.091
		c-0.3-0.299-0.664-0.449-1.092-0.449h-2.054V20.224z"/>
</g>
<g>
	<rect x="16.931" y="13.656" fill="#521B19" width="60.5" height="38"/>
	<path fill="#FFFFFF" d="M45.795,11.519H16.931l1.25,11.72c0,0,6.729-5.605,27.614-5.605s27.614,5.605,27.614,5.605l1.25-11.72
		H45.795z"/>
	<g>
		<ellipse fill="#B9524F" cx="45.795" cy="47.577" rx="15.484" ry="8.642"/>
	</g>
	<g>
		<path fill="none" d="M19,14.785v6.369c0,14.774,12.021,26.795,26.795,26.795S72.59,35.928,72.59,21.154v-6.369
			c-8.276-1.307-18.059-2.463-26.795-2.463C37.06,12.323,27.276,13.478,19,14.785z"/>
		<linearGradient id="SVGID_1_" gradientUnits="userSpaceOnUse" x1="-3.671" y1="17.7425" x2="96.204" y2="40.3675">
			<stop  offset="0" style="stop-color:#FAB766"/>
			<stop  offset="0.517" style="stop-color:#F68E48"/>
		</linearGradient>
		<path fill="url(#SVGID_1_)" d="M53.025,0.156c-0.855,2.734-3.412,4.726-6.419,4.726h-0.022c-3.004-0.012-5.545-2-6.394-4.726H0
			v13.5v4.792v2.706c0,25.251,20.544,45.795,45.795,45.795S91.59,46.405,91.59,21.154v-2.706v-4.792v-13.5H53.025z M72.59,21.154
			c0,14.774-12.02,26.795-26.795,26.795S19,35.928,19,21.154v-6.369c8.276-1.307,18.06-2.463,26.795-2.463
			c8.736,0,18.519,1.156,26.795,2.463V21.154z"/>
	</g>
	<g opacity="0.69">
		<linearGradient id="SVGID_2_" gradientUnits="userSpaceOnUse" x1="4.5676" y1="57.1369" x2="109.0676" y2="15.3869">
			<stop  offset="0" style="stop-color:#F78E48"/>
			<stop  offset="1" style="stop-color:#BE5451"/>
		</linearGradient>
		<path fill="url(#SVGID_2_)" d="M72.59,0.156v20.998c0,14.774-12.02,26.795-26.795,26.795c-4.047,0-7.884-0.907-11.327-2.52
			L19.526,58.631c7.443,5.233,16.5,8.318,26.27,8.318c25.251,0,45.795-20.544,45.795-45.795V0.156H72.59z"/>
	</g>
</g>
</svg>
