<?xml version="1.0" encoding="utf-8"?>
<!-- Generator: Adobe Illustrator 17.1.0, SVG Export Plug-In . SVG Version: 6.00 Build 0)  -->
<!DOCTYPE svg PUBLIC "-//W3C//DTD SVG 1.1//EN" "http://www.w3.org/Graphics/SVG/1.1/DTD/svg11.dtd">
<svg version="1.1" id="Layer_1" xmlns="http://www.w3.org/2000/svg" xmlns:xlink="http://www.w3.org/1999/xlink" x="0px" y="0px"
	 viewBox="0 0 91.59 66.793" enable-background="new 0 0 91.59 66.793" xml:space="preserve">
<g>
	<rect x="16.931" y="13.5" fill="#521B19" width="60.5" height="38"/>
	<path fill="#FFFFFF" d="M45.795,11.363H16.931l1.25,11.72c0,0,6.729-5.605,27.614-5.605s27.614,5.605,27.614,5.605l1.25-11.72
		H45.795z"/>
	<g>
		<ellipse fill="#B9524F" cx="45.795" cy="47.421" rx="15.484" ry="8.642"/>
	</g>
	<g>
		<path fill="none" d="M19,14.629v6.369c0,14.774,12.021,26.795,26.795,26.795S72.59,35.772,72.59,20.998v-6.369
			c-8.276-1.307-18.059-2.463-26.795-2.463C37.06,12.167,27.276,13.322,19,14.629z"/>
		<linearGradient id="SVGID_1_" gradientUnits="userSpaceOnUse" x1="-3.671" y1="17.5865" x2="96.204" y2="40.2115">
			<stop  offset="0" style="stop-color:#FAB766"/>
			<stop  offset="0.517" style="stop-color:#F68E48"/>
		</linearGradient>
		<path fill="url(#SVGID_1_)" d="M53.025,0c-0.855,2.734-3.412,4.726-6.419,4.726h-0.022c-3.004-0.012-5.545-2-6.394-4.726H0v13.5
			v4.792v2.706c0,25.251,20.544,45.795,45.795,45.795S91.59,46.249,91.59,20.998v-2.706V13.5V0H53.025z M72.59,20.998
			c0,14.774-12.02,26.795-26.795,26.795S19,35.772,19,20.998v-6.369c8.276-1.307,18.06-2.463,26.795-2.463
			c8.736,0,18.519,1.156,26.795,2.463V20.998z"/>
	</g>
	<g opacity="0.69">
		<linearGradient id="SVGID_2_" gradientUnits="userSpaceOnUse" x1="4.5676" y1="56.981" x2="109.0676" y2="15.231">
			<stop  offset="0" style="stop-color:#F78E48"/>
			<stop  offset="1" style="stop-color:#BE5451"/>
		</linearGradient>
		<path fill="url(#SVGID_2_)" d="M72.59,0v20.998c0,14.774-12.02,26.795-26.795,26.795c-4.047,0-7.884-0.907-11.327-2.52
			L19.526,58.475c7.443,5.233,16.5,8.318,26.27,8.318c25.251,0,45.795-20.544,45.795-45.795V0H72.59z"/>
	</g>
</g>
</svg>
